# xmcd
#
# Track frame offsets:
#	150
#	3930
#	22677
#	43507
#	65715
#	88050
#	107892
#	131232
#	151392
#	157737
#	178792
#	193605
#	209090
#	227375
#	245810
#	251870
#
# Disc length: 3691 seconds
#
# Revision: 5
# Processed by: cddbd v1.5.2PL0 Copyright (c) Steve Scherf et al.
# Submitted via: audiograbber 1.83.01
#
DISCID=d80e6910
DTITLE=India Arie - Acoustic Soul
DYEAR=2001
DGENRE=Jazz
TTITLE0=Intro
TTITLE1=Video
TTITLE2=Promises
TTITLE3=Brown Skin
TTITLE4=Strength, Courage, and Wisdom
TTITLE5=Nature
TTITLE6=Back To The Middle
TTITLE7=Ready For Love
TTITLE8=Interlude
TTITLE9=Always In My Head
TTITLE10=I See God In You
TTITLE11=Simple
TTITLE12=Part Of My Life
TTITLE13=Beautiful
TTITLE14=Outro
TTITLE15=Wonderful (Bonus Track - Dedication To Stevie Wonder)
EXTD=YEAR: 2001
EXTT0=
EXTT1=
EXTT2=
EXTT3=
EXTT4=
EXTT5=
EXTT6=
EXTT7=
EXTT8=
EXTT9=
EXTT10=
EXTT11=
EXTT12=
EXTT13=
EXTT14=
EXTT15=
PLAYORDER=
